<svg width="82" height="86" viewBox="0 0 82 86" fill="none" xmlns="http://www.w3.org/2000/svg">
<path d="M33.6201 14.3912C33.6201 15.109 33.2356 15.7716 32.6124 16.1277L14.0077 26.7592C13.3846 27.1153 13 27.778 13 28.4957V57.9429C13 58.6607 13.3846 59.3234 14.0078 59.6795L32.6123 70.3091C33.2355 70.6651 33.6201 71.3279 33.6201 72.0456V85.8585L2.01557 67.8002C0.769199 67.0881 0 65.7627 0 64.3272V22.1124C0 20.677 0.76913 19.3516 2.01541 18.6394L33.6201 0.579224V14.3912Z" fill="#6C47FF"/>
<path d="M79.9846 18.6394C81.2309 19.3516 82 20.677 82 22.1124V64.3272C82 65.7627 81.2308 67.0881 79.9844 67.8002L48.3799 85.8585V72.0456C48.3799 71.3279 48.7645 70.6651 49.3877 70.3091L67.9922 59.6795C68.6154 59.3234 69 58.6607 69 57.9429V28.4957C69 27.778 68.6154 27.1153 67.9923 26.7592L49.3876 16.1277C48.7644 15.7716 48.3799 15.109 48.3799 14.3912V0.579224L79.9846 18.6394Z" fill="#6C47FF"/>
<path d="M34.7388 46.744L34.7388 39.6942L41.0005 36.1171L47.2612 39.6942L47.2612 46.744L41.0005 50.3212L34.7388 46.744Z" fill="#6C47FF" stroke="#6C47FF" stroke-width="12"/>
</svg>
