<svg width="415" height="86" viewBox="0 0 415 86" fill="none" xmlns="http://www.w3.org/2000/svg">
<path d="M33.6201 14.3912C33.6201 15.109 33.2356 15.7716 32.6124 16.1277L14.0077 26.7592C13.3846 27.1153 13 27.778 13 28.4957V57.9429C13 58.6607 13.3846 59.3234 14.0078 59.6795L32.6123 70.3091C33.2355 70.6651 33.6201 71.3279 33.6201 72.0456V85.8585L2.01557 67.8002C0.769199 67.0881 0 65.7627 0 64.3272V22.1124C0 20.677 0.76913 19.3516 2.01541 18.6394L33.6201 0.579224V14.3912Z" fill="#642DFF"/>
<path d="M79.9846 18.6394C81.2309 19.3516 82 20.677 82 22.1124V64.3272C82 65.7627 81.2308 67.0881 79.9844 67.8002L48.3799 85.8585V72.0456C48.3799 71.3279 48.7645 70.6651 49.3877 70.3091L67.9922 59.6795C68.6154 59.3234 69 58.6607 69 57.9429V28.4957C69 27.778 68.6154 27.1153 67.9923 26.7592L49.3876 16.1277C48.7644 15.7716 48.3799 15.109 48.3799 14.3912V0.579224L79.9846 18.6394Z" fill="#642DFF"/>
<path d="M34.7388 46.744L34.7388 39.6942L41.0005 36.1171L47.2612 39.6942L47.2612 46.744L41.0005 50.3212L34.7388 46.744Z" fill="#642DFF" stroke="#642DFF" stroke-width="12"/>
<path d="M166.4 43.2189C166.4 32.0189 160.8 24.0189 150.4 24.0189C140 24.0189 134.4 32.0189 134.4 43.2189C134.4 54.4189 140 62.4189 150.4 62.4189C160.8 62.4189 166.4 54.4189 166.4 43.2189ZM177.6 43.2189C177.6 60.0189 167.2 72.0189 150.4 72.0189C133.6 72.0189 123.2 60.0189 123.2 43.2189C123.2 26.4189 133.6 14.4189 150.4 14.4189C167.2 14.4189 177.6 26.4189 177.6 43.2189ZM223.181 51.2189C223.181 64.0189 215.181 72.0189 205.581 72.0189C201.901 72.0189 197.661 70.8989 195.181 68.0189H194.381L193.581 70.4189L192.781 71.2189H183.981L183.181 70.4189V16.0189L183.981 15.2189H193.581L194.381 16.0189V34.4189H195.181C197.661 31.6189 201.821 30.4189 205.581 30.4189C215.181 30.4189 223.181 38.4189 223.181 51.2189ZM211.981 51.2189C211.981 44.8189 209.581 40.0189 203.181 40.0189C196.781 40.0189 194.381 44.8189 194.381 51.2189C194.381 57.6189 196.781 62.4189 203.181 62.4189C209.581 62.4189 211.981 57.6189 211.981 51.2189ZM260.769 59.2189C260.769 65.6189 255.969 72.0189 243.169 72.0189C231.969 72.0189 225.569 66.4189 225.569 58.4189L226.369 57.6189H235.969L236.769 58.4189C236.769 61.6189 239.169 62.4189 243.169 62.4189C247.169 62.4189 249.569 61.6189 249.569 59.2189C249.569 56.0189 246.369 56.0189 241.569 55.2189C236.769 54.4189 226.369 52.0189 226.369 42.4189C226.369 36.0189 231.169 30.4189 243.169 30.4189C252.769 30.4189 259.969 34.4189 259.969 42.4189L259.169 43.2189H249.569L248.769 42.4189C248.769 40.8189 247.169 40.0189 243.169 40.0189C239.169 40.0189 237.569 40.8189 237.569 43.2189C237.569 46.4189 242.369 46.4189 247.169 47.2189C251.969 48.0189 260.769 49.6189 260.769 59.2189ZM301.569 51.2189V54.4189L300.769 55.2189H275.969L275.169 56.0189C275.169 57.6189 276.769 62.4189 283.169 62.4189C285.569 62.4189 287.969 61.6189 288.769 60.0189L289.569 59.2189H299.169L299.969 60.0189C299.169 64.8189 295.169 72.0189 283.169 72.0189C269.569 72.0189 263.169 62.4189 263.169 51.2189C263.169 40.0189 269.569 30.4189 282.369 30.4189C295.169 30.4189 301.569 40.0189 301.569 51.2189ZM288.769 47.2189L289.569 46.4189C289.569 45.6189 288.769 40.0189 282.369 40.0189C275.969 40.0189 275.169 45.6189 275.169 46.4189L275.969 47.2189H288.769ZM332.772 40.0189L331.972 40.8189H326.372C319.972 40.8189 317.572 44.0189 317.572 51.2189V70.4189L316.772 71.2189H307.172L306.372 70.4189V32.0189L307.172 31.2189H315.972L316.772 32.0189L317.572 34.4189H318.372C320.052 32.0989 323.412 31.2189 327.172 31.2189H331.972L332.772 32.0189V40.0189ZM371.984 40.0189L358.384 70.4189L357.584 71.2189H348.784L347.984 70.4189L334.384 40.0189V32.0189L335.184 31.2189H342.384L343.184 32.0189L352.784 56.8189H353.584L363.184 32.0189L363.984 31.2189H371.184L371.984 32.0189V40.0189ZM412.025 51.2189V54.4189L411.225 55.2189H386.425L385.625 56.0189C385.625 57.6189 387.225 62.4189 393.625 62.4189C396.025 62.4189 398.425 61.6189 399.225 60.0189L400.025 59.2189H409.625L410.425 60.0189C409.625 64.8189 405.625 72.0189 393.625 72.0189C380.025 72.0189 373.625 62.4189 373.625 51.2189C373.625 40.0189 380.025 30.4189 392.825 30.4189C405.625 30.4189 412.025 40.0189 412.025 51.2189ZM399.225 47.2189L400.025 46.4189C400.025 45.6189 399.225 40.0189 392.825 40.0189C386.425 40.0189 385.625 45.6189 385.625 46.4189L386.425 47.2189H399.225Z" fill="black"/>
</svg>
