<svg width="445" height="95" viewBox="0 0 445 95" fill="none" xmlns="http://www.w3.org/2000/svg">
<path d="M13 63.5568V63.5997L22.2217 68.8683L25.708 70.8771L25.7148 70.8644L41 79.5988L54.2197 72.045V87.0177L41 94.5724L0 71.1447V56.0685L13 63.5568ZM82 24.2872V71.1447L68.9795 78.5841V63.6105L69 63.5997V31.8312L55.7812 24.2775L68.8457 16.7706L82 24.2872ZM53.9932 8.28235L15.1729 30.589L13 31.8312V31.838L12.9746 31.8527L13 31.8966V46.5236L0 39.0353V24.2872L41 0.858521L53.9932 8.28235Z" fill="#642DFF"/>
<path d="M35.8668 52.6672L35.8668 45.6174L42.1285 42.0403L48.3893 45.6174L48.3893 52.6672L42.1285 56.2444L35.8668 52.6672Z" fill="#642DFF" stroke="#642DFF" stroke-width="12"/>
<path d="M166.4 47.7155C166.4 36.5155 160.8 28.5155 150.4 28.5155C140 28.5155 134.4 36.5155 134.4 47.7155C134.4 58.9155 140 66.9155 150.4 66.9155C160.8 66.9155 166.4 58.9155 166.4 47.7155ZM177.6 47.7155C177.6 64.5155 167.2 76.5155 150.4 76.5155C133.6 76.5155 123.2 64.5155 123.2 47.7155C123.2 30.9155 133.6 18.9155 150.4 18.9155C167.2 18.9155 177.6 30.9155 177.6 47.7155ZM223.181 55.7155C223.181 68.5155 215.181 76.5155 205.581 76.5155C201.661 76.5155 197.501 75.1555 195.181 72.5155H194.381V90.9155L193.581 91.7155H183.981L183.181 90.9155V36.5155L183.981 35.7155H192.781L193.581 36.5155L194.381 38.9155H195.181C197.821 36.2755 201.421 34.9155 205.581 34.9155C215.181 34.9155 223.181 42.9155 223.181 55.7155ZM211.981 55.7155C211.981 49.3155 209.581 44.5155 203.181 44.5155C196.781 44.5155 194.381 49.3155 194.381 55.7155C194.381 62.1155 196.781 66.9155 203.181 66.9155C209.581 66.9155 211.981 62.1155 211.981 55.7155ZM242.387 46.1155V63.7155C242.387 65.3155 243.187 66.1155 244.787 66.1155H251.987L252.787 66.9155V74.9155L251.987 75.7155H244.787C237.587 75.7155 231.187 72.5155 231.187 63.7155V46.1155L230.387 45.3155H224.787L223.987 44.5155V36.5155L224.787 35.7155H230.387L231.187 34.9155V27.7155L231.987 26.9155H241.587L242.387 27.7155V34.9155L243.187 35.7155H251.987L252.787 36.5155V44.5155L251.987 45.3155H243.187L242.387 46.1155ZM269.581 28.5155L268.781 29.3155H259.181L258.381 28.5155V20.5154L259.181 19.7155H268.781L269.581 20.5154V28.5155ZM269.581 74.9155L268.781 75.7155H259.181L258.381 74.9155V36.5155L259.181 35.7155H268.781L269.581 36.5155V74.9155ZM337.562 74.9155L336.762 75.7155H327.162L326.362 74.9155V51.7155C326.362 47.7155 324.762 44.5155 319.962 44.5155C315.162 44.5155 312.762 47.7155 312.762 53.3155V74.9155L311.962 75.7155H302.362L301.562 74.9155V51.7155C301.562 47.7155 299.962 44.5155 295.162 44.5155C290.362 44.5155 287.962 47.7155 287.962 53.3155V74.9155L287.162 75.7155H277.562L276.762 74.9155V36.5155L277.562 35.7155H286.362L287.162 36.5155L287.962 38.9155H288.762C290.202 37.2355 292.442 34.9155 298.362 34.9155C304.762 34.9155 307.962 38.1155 309.562 40.5155H310.362C312.762 36.6755 317.882 34.9155 322.362 34.9155C331.962 34.9155 337.562 40.5155 337.562 50.9155V74.9155ZM355.172 28.5155L354.372 29.3155H344.772L343.972 28.5155V20.5154L344.772 19.7155H354.372L355.172 20.5154V28.5155ZM355.172 74.9155L354.372 75.7155H344.772L343.972 74.9155V36.5155L344.772 35.7155H354.372L355.172 36.5155V74.9155ZM395.953 74.9155L395.153 75.7155H361.553L360.753 74.9155V66.1155L361.553 64.5155L379.953 46.1155V45.3155H362.353L361.553 44.5155V36.5155L362.353 35.7155H394.353L395.153 36.5155V45.3155L394.353 46.9155L375.953 65.3155V66.1155H395.153L395.953 66.9155V74.9155ZM435.953 55.7155V58.9155L435.153 59.7155H410.353L409.553 60.5155C409.553 62.1155 411.153 66.9155 417.553 66.9155C419.953 66.9155 422.353 66.1155 423.153 64.5155L423.953 63.7155H433.553L434.353 64.5155C433.553 69.3155 429.553 76.5155 417.553 76.5155C403.953 76.5155 397.553 66.9155 397.553 55.7155C397.553 44.5155 403.953 34.9155 416.753 34.9155C429.553 34.9155 435.953 44.5155 435.953 55.7155ZM423.153 51.7155L423.953 50.9155C423.953 50.1155 423.153 44.5155 416.753 44.5155C410.353 44.5155 409.553 50.1155 409.553 50.9155L410.353 51.7155H423.153Z" fill="black"/>
</svg>
