<svg width="361" height="89" viewBox="0 0 361 89" fill="none" xmlns="http://www.w3.org/2000/svg">
<path d="M11.96 56.1262L29.458 46.0979L41.2695 52.8665L34.3027 57.0432L28.0488 60.6174L28.0654 60.6262L16.8906 67.011L18.2178 67.7844L18.2168 67.7659L41 81.0549L30.1768 87.304C29.5384 87.6725 28.7511 87.6713 28.1143 87.3L1.66602 71.8723C0.723376 71.3225 0.141581 70.3151 0.136719 69.2239L0 38.6057C-0.00328542 37.8684 0.388743 37.1853 1.02734 36.8167L11.8457 30.5715L11.96 56.1262ZM80.9727 36.8167C81.6111 37.1853 82.0032 37.8675 82 38.6047L81.8633 69.2239C81.8583 70.315 81.2774 71.3225 80.335 71.8723L53.8867 87.2991C53.2498 87.6706 52.4618 87.6727 51.8232 87.304L41.0059 81.0579L63.7773 67.7747V67.7932L65.2559 66.926L54.2314 60.6262L54.248 60.6165L46.5918 56.2385L46.5811 42.5598L70.0352 55.9651L70.1494 30.5676L80.9727 36.8167ZM39.4707 1.09497C40.4182 0.553544 41.5818 0.553545 42.5293 1.09497L69.1133 16.2854C69.7535 16.6512 70.1494 17.3323 70.1494 18.0696L70.1484 30.5618L47.2598 17.4817L47.2754 17.4729L45.7783 16.6213L45.8359 29.3235L45.8193 29.3137L45.8506 36.5168L34.0107 43.3645L33.8975 17.969L11.8506 30.5676V18.0696C11.8506 17.3323 12.2465 16.6512 12.8867 16.2854L39.4707 1.09497Z" fill="#642DFF"/>
<path d="M21.5063 46.4167L50.7466 29.5349L50.7466 63.2986L21.5063 46.4167Z" fill="white"/>
<path d="M172 44.134C172 61.734 164.8 72.134 144.8 72.134H127.2L126.4 71.334V16.934L127.2 16.134H144.8C164.8 16.134 172 26.534 172 44.134ZM160.8 44.134C160.8 31.334 156.8 25.734 145.6 25.734H138.4L137.6 26.534V61.734L138.4 62.534H145.6C156.8 62.534 160.8 56.934 160.8 44.134ZM213.634 52.134V55.334L212.834 56.134H188.034L187.234 56.934C187.234 58.534 188.834 63.334 195.234 63.334C197.634 63.334 200.034 62.534 200.834 60.934L201.634 60.134H211.234L212.034 60.934C211.234 65.734 207.234 72.934 195.234 72.934C181.634 72.934 175.234 63.334 175.234 52.134C175.234 40.934 181.634 31.334 194.434 31.334C207.234 31.334 213.634 40.934 213.634 52.134ZM200.834 48.134L201.634 47.334C201.634 46.534 200.834 40.934 194.434 40.934C188.034 40.934 187.234 46.534 187.234 47.334L188.034 48.134H200.834ZM258.437 52.134C258.437 64.934 250.437 72.934 240.837 72.934C236.917 72.934 232.757 71.574 230.437 68.934H229.637V87.334L228.837 88.134H219.237L218.437 87.334V32.934L219.237 32.134H228.037L228.837 32.934L229.637 35.334H230.437C233.077 32.694 236.677 31.334 240.837 31.334C250.437 31.334 258.437 39.334 258.437 52.134ZM247.237 52.134C247.237 45.734 244.837 40.934 238.437 40.934C232.037 40.934 229.637 45.734 229.637 52.134C229.637 58.534 232.037 63.334 238.437 63.334C244.837 63.334 247.237 58.534 247.237 52.134ZM274.425 71.334L273.625 72.134H264.025L263.225 71.334V16.934L264.025 16.134H273.625L274.425 16.934V71.334ZM319.206 52.134C319.206 64.934 311.206 72.934 299.206 72.934C287.206 72.934 279.206 64.934 279.206 52.134C279.206 39.334 287.206 31.334 299.206 31.334C311.206 31.334 319.206 39.334 319.206 52.134ZM308.006 52.134C308.006 44.934 304.806 40.934 299.206 40.934C293.606 40.934 290.406 44.934 290.406 52.134C290.406 59.334 293.606 63.334 299.206 63.334C304.806 63.334 308.006 59.334 308.006 52.134ZM358.391 40.934L345.591 72.934C342.391 80.934 339.191 85.734 327.991 85.734H323.991L323.191 84.934V76.934L323.991 76.134H327.991C331.991 76.134 332.791 75.334 333.591 72.934V72.134L320.791 40.934V32.934L321.591 32.134H328.791L329.591 32.934L339.191 60.134H339.991L349.591 32.934L350.391 32.134H357.591L358.391 32.934V40.934Z" fill="black"/>
</svg>
