<svg width="82" height="88" viewBox="0 0 82 88" fill="none" xmlns="http://www.w3.org/2000/svg">
<path d="M11.96 56.1262L29.458 46.0979L41.2695 52.8665L34.3027 57.0432L28.0488 60.6174L28.0654 60.6262L16.8906 67.011L18.2178 67.7844L18.2168 67.7659L41 81.0549L30.1768 87.304C29.5384 87.6725 28.7511 87.6713 28.1143 87.3L1.66602 71.8723C0.723376 71.3225 0.141581 70.3151 0.136719 69.2239L0 38.6057C-0.00328542 37.8684 0.388743 37.1853 1.02734 36.8167L11.8457 30.5715L11.96 56.1262ZM80.9727 36.8167C81.6111 37.1853 82.0032 37.8675 82 38.6047L81.8633 69.2239C81.8583 70.315 81.2774 71.3225 80.335 71.8723L53.8867 87.2991C53.2498 87.6706 52.4618 87.6727 51.8232 87.304L41.0059 81.0579L63.7773 67.7747V67.7932L65.2559 66.926L54.2314 60.6262L54.248 60.6165L46.5918 56.2385L46.5811 42.5598L70.0352 55.9651L70.1494 30.5676L80.9727 36.8167ZM39.4707 1.09497C40.4182 0.553544 41.5818 0.553545 42.5293 1.09497L69.1133 16.2854C69.7535 16.6512 70.1494 17.3323 70.1494 18.0696L70.1484 30.5618L47.2598 17.4817L47.2754 17.4729L45.7783 16.6213L45.8359 29.3235L45.8193 29.3137L45.8506 36.5168L34.0107 43.3645L33.8975 17.969L11.8506 30.5676V18.0696C11.8506 17.3323 12.2465 16.6512 12.8867 16.2854L39.4707 1.09497Z" fill="#642DFF"/>
<path d="M21.5063 46.4167L50.7466 29.5349L50.7466 63.2986L21.5063 46.4167Z" fill="white"/>
</svg>
