<svg width="362" height="89" viewBox="0 0 362 89" fill="none" xmlns="http://www.w3.org/2000/svg">
<path d="M12.46 56.1262L29.958 46.0979L41.7695 52.8665L34.8027 57.0432L28.5488 60.6174L28.5654 60.6262L17.3906 67.011L18.7178 67.7844L18.7168 67.7659L41.5 81.0549L30.6768 87.304C30.0384 87.6725 29.2511 87.6713 28.6143 87.3L2.16602 71.8723C1.22338 71.3225 0.641581 70.3151 0.636719 69.2239L0.5 38.6057C0.496715 37.8684 0.888743 37.1853 1.52734 36.8167L12.3457 30.5715L12.46 56.1262ZM81.4727 36.8167C82.1111 37.1853 82.5032 37.8675 82.5 38.6047L82.3633 69.2239C82.3583 70.315 81.7774 71.3225 80.835 71.8723L54.3867 87.2991C53.7498 87.6706 52.9618 87.6727 52.3232 87.304L41.5059 81.0579L64.2773 67.7747V67.7932L65.7559 66.926L54.7314 60.6262L54.748 60.6165L47.0918 56.2385L47.0811 42.5598L70.5352 55.9651L70.6494 30.5676L81.4727 36.8167ZM39.9707 1.09497C40.9182 0.553544 42.0818 0.553545 43.0293 1.09497L69.6133 16.2854C70.2535 16.6512 70.6494 17.3323 70.6494 18.0696L70.6484 30.5618L47.7598 17.4817L47.7754 17.4729L46.2783 16.6213L46.3359 29.3235L46.3193 29.3137L46.3506 36.5168L34.5107 43.3645L34.3975 17.969L12.3506 30.5676V18.0696C12.3506 17.3323 12.7465 16.6512 13.3867 16.2854L39.9707 1.09497Z" fill="#642DFF"/>
<path d="M22.0063 46.4167L51.2466 29.5349L51.2466 63.2986L22.0063 46.4167Z" fill="#232A3B"/>
<path d="M172.5 44.134C172.5 61.734 165.3 72.134 145.3 72.134H127.7L126.9 71.334V16.934L127.7 16.134H145.3C165.3 16.134 172.5 26.534 172.5 44.134ZM161.3 44.134C161.3 31.334 157.3 25.734 146.1 25.734H138.9L138.1 26.534V61.734L138.9 62.534H146.1C157.3 62.534 161.3 56.934 161.3 44.134ZM214.134 52.134V55.334L213.334 56.134H188.534L187.734 56.934C187.734 58.534 189.334 63.334 195.734 63.334C198.134 63.334 200.534 62.534 201.334 60.934L202.134 60.134H211.734L212.534 60.934C211.734 65.734 207.734 72.934 195.734 72.934C182.134 72.934 175.734 63.334 175.734 52.134C175.734 40.934 182.134 31.334 194.934 31.334C207.734 31.334 214.134 40.934 214.134 52.134ZM201.334 48.134L202.134 47.334C202.134 46.534 201.334 40.934 194.934 40.934C188.534 40.934 187.734 46.534 187.734 47.334L188.534 48.134H201.334ZM258.938 52.134C258.938 64.934 250.938 72.934 241.338 72.934C237.418 72.934 233.258 71.574 230.938 68.934H230.138V87.334L229.338 88.134H219.738L218.938 87.334V32.934L219.738 32.134H228.538L229.338 32.934L230.138 35.334H230.938C233.578 32.694 237.178 31.334 241.338 31.334C250.938 31.334 258.938 39.334 258.938 52.134ZM247.738 52.134C247.738 45.734 245.338 40.934 238.938 40.934C232.538 40.934 230.138 45.734 230.138 52.134C230.138 58.534 232.538 63.334 238.938 63.334C245.338 63.334 247.738 58.534 247.738 52.134ZM274.925 71.334L274.125 72.134H264.525L263.725 71.334V16.934L264.525 16.134H274.125L274.925 16.934V71.334ZM319.706 52.134C319.706 64.934 311.706 72.934 299.706 72.934C287.706 72.934 279.706 64.934 279.706 52.134C279.706 39.334 287.706 31.334 299.706 31.334C311.706 31.334 319.706 39.334 319.706 52.134ZM308.506 52.134C308.506 44.934 305.306 40.934 299.706 40.934C294.106 40.934 290.906 44.934 290.906 52.134C290.906 59.334 294.106 63.334 299.706 63.334C305.306 63.334 308.506 59.334 308.506 52.134ZM358.891 40.934L346.091 72.934C342.891 80.934 339.691 85.734 328.491 85.734H324.491L323.691 84.934V76.934L324.491 76.134H328.491C332.491 76.134 333.291 75.334 334.091 72.934V72.134L321.291 40.934V32.934L322.091 32.134H329.291L330.091 32.934L339.691 60.134H340.491L350.091 32.934L350.891 32.134H358.091L358.891 32.934V40.934Z" fill="white"/>
</svg>
