<svg width="445" height="90" viewBox="0 0 445 90" fill="none" xmlns="http://www.w3.org/2000/svg">
<path d="M80 64.2525C80 65.8474 79.1454 67.32 77.7606 68.1114L42.2051 88.4287C40.8387 89.2094 39.1613 89.2094 37.7949 88.4287L2.23956 68.1114C0.854688 67.3201 6.36615e-05 65.8473 0.000166814 64.2523L0.00108507 50.0535L31.4106 68.0016L31.3889 68.0146L38.914 72.2931C39.5966 72.6812 40.4333 72.6802 41.115 72.2906L48.597 68.0146L48.5742 68.0016L80 50.0448V64.2525Z" fill="#642DFF"/>
<path d="M80 24.1177V36.6555C80 38.2504 79.1454 39.723 77.7607 40.5144L42.1976 60.837C40.8311 61.6178 39.1537 61.6178 37.7873 60.8369L2.24036 40.523C0.855642 39.7317 0.00108507 38.2591 0.00108507 36.6643V24.1177L0.00868056 24.1123L20.0076 35.5403L20 35.5457L31.403 42.0615L31.3921 42.0691L38.8729 46.3449C39.5547 46.7346 40.3916 46.7355 41.0742 46.3473L48.597 42.0691L48.5905 42.0648L60 35.5457L59.9848 35.537L79.9848 24.109L80 24.1177Z" fill="#642DFF"/>
<path d="M71.4019 18.2045L57.4414 26.1831L49.1916 21.4684L49.1981 21.4652L41.0957 16.8413C40.4127 16.4516 39.5745 16.4518 38.8917 16.842L30.8019 21.4652L30.8084 21.4684L22.5521 26.1863L8.59158 18.2067L37.795 1.52062C39.1613 0.739932 40.8386 0.739963 42.205 1.5207L71.4019 18.2045Z" fill="#642DFF"/>
<path d="M171.8 33.7747C171.8 44.9747 163.8 50.5747 152.6 50.5747H137.4L136.6 51.3747V72.1747L135.8 72.9747H126.2L125.4 72.1747V17.7747L126.2 16.9747H152.6C163.8 16.9747 171.8 22.5747 171.8 33.7747ZM160.6 33.7747C160.6 28.1747 157.4 26.5747 152.6 26.5747H137.4L136.6 27.3747V40.1747L137.4 40.9747H152.6C157.4 40.9747 160.6 39.3747 160.6 33.7747ZM202.175 41.7747L201.375 42.5747H195.775C189.375 42.5747 186.975 45.7747 186.975 52.9747V72.1747L186.175 72.9747H176.575L175.775 72.1747V33.7747L176.575 32.9747H185.375L186.175 33.7747L186.975 36.1747H187.775C189.455 33.8547 192.815 32.9747 196.575 32.9747H201.375L202.175 33.7747V41.7747ZM241.366 52.9747C241.366 65.7747 233.366 73.7747 221.366 73.7747C209.366 73.7747 201.366 65.7747 201.366 52.9747C201.366 40.1747 209.366 32.1747 221.366 32.1747C233.366 32.1747 241.366 40.1747 241.366 52.9747ZM230.166 52.9747C230.166 45.7747 226.966 41.7747 221.366 41.7747C215.766 41.7747 212.566 45.7747 212.566 52.9747C212.566 60.1747 215.766 64.1747 221.366 64.1747C226.966 64.1747 230.166 60.1747 230.166 52.9747ZM280.55 41.7747L266.95 72.1747L266.15 72.9747H257.35L256.55 72.1747L242.95 41.7747V33.7747L243.75 32.9747H250.95L251.75 33.7747L261.35 58.5747H262.15L271.75 33.7747L272.55 32.9747H279.75L280.55 33.7747V41.7747ZM296.572 25.7747L295.772 26.5747H286.172L285.372 25.7747V17.7747L286.172 16.9747H295.772L296.572 17.7747V25.7747ZM296.572 72.1747L295.772 72.9747H286.172L285.372 72.1747V33.7747L286.172 32.9747H295.772L296.572 33.7747V72.1747ZM336.553 60.9747C336.553 67.3747 331.753 73.7747 318.953 73.7747C307.753 73.7747 301.353 68.1747 301.353 60.1747L302.153 59.3747H311.753L312.553 60.1747C312.553 63.3747 314.953 64.1747 318.953 64.1747C322.953 64.1747 325.353 63.3747 325.353 60.9747C325.353 57.7747 322.153 57.7747 317.353 56.9747C312.553 56.1747 302.153 53.7747 302.153 44.1747C302.153 37.7747 306.953 32.1747 318.953 32.1747C328.553 32.1747 335.753 36.1747 335.753 44.1747L334.953 44.9747H325.353L324.553 44.1747C324.553 42.5747 322.953 41.7747 318.953 41.7747C314.953 41.7747 313.353 42.5747 313.353 44.9747C313.353 48.1747 318.153 48.1747 322.953 48.9747C327.753 49.7747 336.553 51.3747 336.553 60.9747ZM352.553 25.7747L351.753 26.5747H342.153L341.353 25.7747V17.7747L342.153 16.9747H351.753L352.553 17.7747V25.7747ZM352.553 72.1747L351.753 72.9747H342.153L341.353 72.1747V33.7747L342.153 32.9747H351.753L352.553 33.7747V72.1747ZM397.334 52.9747C397.334 65.7747 389.334 73.7747 377.334 73.7747C365.334 73.7747 357.334 65.7747 357.334 52.9747C357.334 40.1747 365.334 32.1747 377.334 32.1747C389.334 32.1747 397.334 40.1747 397.334 52.9747ZM386.134 52.9747C386.134 45.7747 382.934 41.7747 377.334 41.7747C371.734 41.7747 368.534 45.7747 368.534 52.9747C368.534 60.1747 371.734 64.1747 377.334 64.1747C382.934 64.1747 386.134 60.1747 386.134 52.9747ZM439.7 72.1747L438.9 72.9747H429.3L428.5 72.1747V48.9747C428.5 44.9747 426.9 41.7747 422.1 41.7747C416.5 41.7747 413.3 44.9747 413.3 52.1747V72.1747L412.5 72.9747H402.9L402.1 72.1747V33.7747L402.9 32.9747H411.7L412.5 33.7747L413.3 36.1747H414.1C415.7 34.5747 418.9 32.1747 424.5 32.1747C434.1 32.1747 439.7 38.5747 439.7 48.1747V72.1747Z" fill="#252525"/>
</svg>
