<svg width="80" height="90" viewBox="0 0 80 90" fill="none" xmlns="http://www.w3.org/2000/svg">
<path d="M80 64.2525C80 65.8474 79.1454 67.32 77.7606 68.1114L42.2051 88.4287C40.8387 89.2094 39.1613 89.2094 37.7949 88.4287L2.23956 68.1114C0.854688 67.3201 6.36615e-05 65.8473 0.000166814 64.2523L0.00108507 50.0535L31.4106 68.0016L31.3889 68.0146L38.914 72.2931C39.5966 72.6812 40.4333 72.6802 41.115 72.2906L48.597 68.0146L48.5742 68.0016L80 50.0448V64.2525Z" fill="#642DFF"/>
<path d="M80 24.1177V36.6555C80 38.2504 79.1454 39.723 77.7607 40.5144L42.1976 60.837C40.8311 61.6178 39.1537 61.6178 37.7873 60.8369L2.24036 40.523C0.855642 39.7317 0.00108507 38.2591 0.00108507 36.6643V24.1177L0.00868056 24.1123L20.0076 35.5403L20 35.5457L31.403 42.0615L31.3921 42.0691L38.8729 46.3449C39.5547 46.7346 40.3916 46.7355 41.0742 46.3473L48.597 42.0691L48.5905 42.0648L60 35.5457L59.9848 35.537L79.9848 24.109L80 24.1177Z" fill="#642DFF"/>
<path d="M71.4019 18.2045L57.4414 26.1831L49.1916 21.4684L49.1981 21.4652L41.0957 16.8413C40.4127 16.4516 39.5745 16.4518 38.8917 16.842L30.8019 21.4652L30.8084 21.4684L22.5521 26.1863L8.59158 18.2067L37.795 1.52062C39.1613 0.739932 40.8386 0.739963 42.205 1.5207L71.4019 18.2045Z" fill="#642DFF"/>
</svg>
