<svg width="367" height="92" viewBox="0 0 367 92" fill="none" xmlns="http://www.w3.org/2000/svg">
<path d="M168.916 55.2861C168.916 64.0861 162.516 72.0861 145.716 72.0861C129.716 72.0861 122.516 64.0861 122.516 53.6861L123.316 52.8861H132.916L133.716 53.6861C133.716 59.2861 136.916 62.4861 146.516 62.4861C153.716 62.4861 157.716 60.0861 157.716 55.2861C157.716 49.6861 154.516 48.0861 143.316 46.4861C132.116 44.8861 123.316 40.8861 123.316 29.6861C123.316 21.6861 129.716 14.4861 144.916 14.4861C160.116 14.4861 166.516 21.6861 166.516 31.2861L165.716 32.0861H156.116L155.316 31.2861C155.316 26.4861 152.916 24.0861 144.116 24.0861C136.916 24.0861 134.516 26.4861 134.516 29.6861C134.516 34.4861 137.716 36.0861 148.916 37.6861C160.116 39.2861 168.916 44.0861 168.916 55.2861ZM210.529 51.2861V54.4861L209.729 55.2861H184.929L184.129 56.0861C184.129 57.6861 185.729 62.4861 192.129 62.4861C194.529 62.4861 196.929 61.6861 197.729 60.0861L198.529 59.2861H208.129L208.929 60.0861C208.129 64.8861 204.129 72.0861 192.129 72.0861C178.529 72.0861 172.129 62.4861 172.129 51.2861C172.129 40.0861 178.529 30.4861 191.329 30.4861C204.129 30.4861 210.529 40.0861 210.529 51.2861ZM197.729 47.2861L198.529 46.4861C198.529 45.6861 197.729 40.0861 191.329 40.0861C184.929 40.0861 184.129 45.6861 184.129 46.4861L184.929 47.2861H197.729ZM224.132 51.2861C224.132 58.4861 227.332 62.4861 232.932 62.4861C236.932 62.4861 239.332 60.8861 240.132 58.4861L240.932 57.6861H250.532L251.332 58.4861C249.732 68.0861 241.732 72.0861 232.932 72.0861C220.932 72.0861 212.932 64.0861 212.932 51.2861C212.932 38.4861 220.932 30.4861 232.932 30.4861C241.732 30.4861 249.732 34.4861 251.332 44.0861L250.532 44.8861H240.932L240.132 44.0861C239.332 41.6861 236.932 40.0861 232.932 40.0861C227.332 40.0861 224.132 44.0861 224.132 51.2861ZM255.335 32.0861L256.135 31.2861H265.735L266.535 32.0861V55.2861C266.535 59.2861 268.135 62.4861 272.935 62.4861C278.535 62.4861 280.935 58.4861 280.935 52.8861V32.0861L281.735 31.2861H291.335L292.135 32.0861V70.4861L291.335 71.2861H282.535L281.735 70.4861L280.935 68.0861H280.135C278.935 69.6061 276.535 72.0861 270.535 72.0861C260.935 72.0861 255.335 65.6861 255.335 56.0861V32.0861ZM325.76 40.0861L324.96 40.8861H319.36C312.96 40.8861 310.56 44.0861 310.56 51.2861V70.4861L309.76 71.2861H300.16L299.36 70.4861V32.0861L300.16 31.2861H308.96L309.76 32.0861L310.56 34.4861H311.36C313.04 32.1661 316.4 31.2861 320.16 31.2861H324.96L325.76 32.0861V40.0861ZM363.351 51.2861V54.4861L362.551 55.2861H337.751L336.951 56.0861C336.951 57.6861 338.551 62.4861 344.951 62.4861C347.351 62.4861 349.751 61.6861 350.551 60.0861L351.351 59.2861H360.951L361.751 60.0861C360.951 64.8861 356.951 72.0861 344.951 72.0861C331.351 72.0861 324.951 62.4861 324.951 51.2861C324.951 40.0861 331.351 30.4861 344.151 30.4861C356.951 30.4861 363.351 40.0861 363.351 51.2861ZM350.551 47.2861L351.351 46.4861C351.351 45.6861 350.551 40.0861 344.151 40.0861C337.751 40.0861 336.951 45.6861 336.951 46.4861L337.751 47.2861H350.551Z" fill="white"/>
<path d="M14.1582 61.2159L40.5 76.2687L66.8418 61.2159V45.3107H80.5V69.1437L40.5 92.0001L0.5 69.1437V45.3107H14.1582V61.2159ZM52.5391 35.174V48.9366L40.498 55.8175L28.4561 48.9366V35.174L40.498 28.2931L52.5391 35.174ZM80.5 30.9113H66.8418V14.2306H14.1592V30.9113H0.500977V0.572388H80.5V30.9113Z" fill="#642DFF"/>
</svg>
