<svg width="366" height="92" viewBox="0 0 366 92" fill="none" xmlns="http://www.w3.org/2000/svg">
<path d="M168.416 55.2861C168.416 64.0861 162.016 72.0861 145.216 72.0861C129.216 72.0861 122.016 64.0861 122.016 53.6861L122.816 52.8861H132.416L133.216 53.6861C133.216 59.2861 136.416 62.4861 146.016 62.4861C153.216 62.4861 157.216 60.0861 157.216 55.2861C157.216 49.6861 154.016 48.0861 142.816 46.4861C131.616 44.8861 122.816 40.8861 122.816 29.6861C122.816 21.6861 129.216 14.4861 144.416 14.4861C159.616 14.4861 166.016 21.6861 166.016 31.2861L165.216 32.0861H155.616L154.816 31.2861C154.816 26.4861 152.416 24.0861 143.616 24.0861C136.416 24.0861 134.016 26.4861 134.016 29.6861C134.016 34.4861 137.216 36.0861 148.416 37.6861C159.616 39.2861 168.416 44.0861 168.416 55.2861ZM210.029 51.2861V54.4861L209.229 55.2861H184.429L183.629 56.0861C183.629 57.6861 185.229 62.4861 191.629 62.4861C194.029 62.4861 196.429 61.6861 197.229 60.0861L198.029 59.2861H207.629L208.429 60.0861C207.629 64.8861 203.629 72.0861 191.629 72.0861C178.029 72.0861 171.629 62.4861 171.629 51.2861C171.629 40.0861 178.029 30.4861 190.829 30.4861C203.629 30.4861 210.029 40.0861 210.029 51.2861ZM197.229 47.2861L198.029 46.4861C198.029 45.6861 197.229 40.0861 190.829 40.0861C184.429 40.0861 183.629 45.6861 183.629 46.4861L184.429 47.2861H197.229ZM223.632 51.2861C223.632 58.4861 226.832 62.4861 232.432 62.4861C236.432 62.4861 238.832 60.8861 239.632 58.4861L240.432 57.6861H250.032L250.832 58.4861C249.232 68.0861 241.232 72.0861 232.432 72.0861C220.432 72.0861 212.432 64.0861 212.432 51.2861C212.432 38.4861 220.432 30.4861 232.432 30.4861C241.232 30.4861 249.232 34.4861 250.832 44.0861L250.032 44.8861H240.432L239.632 44.0861C238.832 41.6861 236.432 40.0861 232.432 40.0861C226.832 40.0861 223.632 44.0861 223.632 51.2861ZM254.835 32.0861L255.635 31.2861H265.235L266.035 32.0861V55.2861C266.035 59.2861 267.635 62.4861 272.435 62.4861C278.035 62.4861 280.435 58.4861 280.435 52.8861V32.0861L281.235 31.2861H290.835L291.635 32.0861V70.4861L290.835 71.2861H282.035L281.235 70.4861L280.435 68.0861H279.635C278.435 69.6061 276.035 72.0861 270.035 72.0861C260.435 72.0861 254.835 65.6861 254.835 56.0861V32.0861ZM325.26 40.0861L324.46 40.8861H318.86C312.46 40.8861 310.06 44.0861 310.06 51.2861V70.4861L309.26 71.2861H299.66L298.86 70.4861V32.0861L299.66 31.2861H308.46L309.26 32.0861L310.06 34.4861H310.86C312.54 32.1661 315.9 31.2861 319.66 31.2861H324.46L325.26 32.0861V40.0861ZM362.851 51.2861V54.4861L362.051 55.2861H337.251L336.451 56.0861C336.451 57.6861 338.051 62.4861 344.451 62.4861C346.851 62.4861 349.251 61.6861 350.051 60.0861L350.851 59.2861H360.451L361.251 60.0861C360.451 64.8861 356.451 72.0861 344.451 72.0861C330.851 72.0861 324.451 62.4861 324.451 51.2861C324.451 40.0861 330.851 30.4861 343.651 30.4861C356.451 30.4861 362.851 40.0861 362.851 51.2861ZM350.051 47.2861L350.851 46.4861C350.851 45.6861 350.051 40.0861 343.651 40.0861C337.251 40.0861 336.451 45.6861 336.451 46.4861L337.251 47.2861H350.051Z" fill="black"/>
<path d="M13.6582 61.2159L40 76.2687L66.3418 61.2159V45.3107H80V69.1437L40 92.0001L0 69.1437V45.3107H13.6582V61.2159ZM52.0391 35.174V48.9366L39.998 55.8175L27.9561 48.9366V35.174L39.998 28.2931L52.0391 35.174ZM80 30.9113H66.3418V14.2306H13.6592V30.9113H0.000976562V0.572388H80V30.9113Z" fill="#642DFF"/>
</svg>
