<?xml version="1.0" standalone="no"?>
<!DOCTYPE svg PUBLIC "-//W3C//DTD SVG 20010904//EN"
 "http://www.w3.org/TR/2001/REC-SVG-20010904/DTD/svg10.dtd">
<svg version="1.0" xmlns="http://www.w3.org/2000/svg"
 width="24" height="24" viewBox="0 0 260.000000 260.000000"
 preserveAspectRatio="xMidYMid meet">
<metadata>
Created by potrace 1.11, written by Peter Selinger 2001-2013
</metadata>
<g transform="translate(0.000000,260.000000) scale(0.100000,-0.100000)"
fill="#520199" stroke="none">
<path d="M573 2586 c-166 -41 -308 -177 -356 -343 -9 -28 -13 -54 -10 -57 4
-3 2 -6 -4 -6 -11 0 -11 -1327 0 -1370 4 -13 9 -42 13 -64 3 -22 17 -74 31
-116 103 -312 385 -556 710 -614 101 -18 991 -22 1062 -4 183 43 330 192 370
373 7 34 10 266 8 735 -3 724 -3 722 -51 856 -94 266 -300 474 -564 569 -139
49 -192 54 -692 54 -342 0 -479 -4 -517 -13z m1042 -301 c176 -44 337 -170
414 -326 71 -143 71 -143 71 -875 l0 -650 -29 -47 c-19 -29 -46 -54 -72 -67
-41 -21 -53 -22 -483 -22 -242 -1 -460 2 -483 6 -24 4 -46 8 -50 8 -5 0 -37
11 -72 24 -199 75 -341 231 -398 439 -15 53 -17 138 -18 705 -1 371 2 660 8
680 19 72 80 127 156 139 19 3 226 5 460 5 367 -2 436 -4 496 -19z"/>
<path d="M938 1997 c-48 -12 -95 -52 -120 -100 -21 -41 -21 -53 -21 -382 0
-305 1 -344 17 -377 50 -104 201 -109 260 -9 18 31 20 54 21 266 1 312 -1 309
210 311 146 2 177 11 216 66 32 45 32 121 1 166 -45 62 -62 65 -319 66 -128 1
-248 -3 -265 -7z"/>
<path d="M1612 1536 c-40 -14 -80 -50 -94 -86 -7 -14 -12 -123 -12 -258 l-2
-233 -32 -32 -32 -32 -148 -5 c-134 -5 -150 -7 -178 -29 -86 -64 -81 -177 10
-245 26 -20 42 -21 264 -23 130 -1 254 3 275 8 47 12 99 58 122 106 16 33 18
72 17 353 0 173 -1 331 -1 351 -1 27 -10 47 -38 78 -44 48 -98 64 -151 47z"/>
</g>
</svg>
