<svg width="82" height="87" viewBox="0 0 82 87" fill="none" xmlns="http://www.w3.org/2000/svg">
<path d="M30.1764 86.6159C29.5378 86.9846 28.7507 86.9828 28.1138 86.6113L1.66553 71.1839C0.722894 70.634 0.141308 69.6267 0.136445 68.5354L2.04862e-05 37.917C-0.00326495 37.1796 0.388828 36.497 1.02744 36.1283L11.8459 29.8831L11.9634 56.2451L11.9473 56.2362L11.9866 62.1659C11.9919 62.9725 12.4225 63.7165 13.1193 64.1228L18.2173 67.0961L18.2172 67.077L41 80.3669L30.1764 86.6159Z" fill="#6C47FF"/>
<path d="M80.9727 36.1281C81.6113 36.4967 82.0033 37.1793 82.0001 37.9166L81.8636 68.5352C81.8588 69.6264 81.2772 70.6338 80.3345 71.1836L53.8864 86.611C53.2494 86.9825 52.4623 86.9843 51.8237 86.6156L41.0059 80.3691L63.7773 67.0863L63.7776 67.1048L68.8933 64.1059C69.5892 63.698 70.0181 62.9531 70.0217 62.1464L70.0476 56.2448L70.0311 56.2544L70.1491 29.879L80.9727 36.1281Z" fill="#6C47FF"/>
<path d="M11.851 17.3812C11.851 16.6438 12.2461 15.963 12.8863 15.5972L39.4709 0.406069C40.4184 -0.135357 41.5816 -0.135356 42.5291 0.40607L69.1137 15.5972C69.7539 15.963 70.149 16.6439 70.149 17.3812L70.1483 29.8729L47.2593 16.7937L47.2752 16.7842L42.1202 13.8533C41.419 13.4547 40.5594 13.4556 39.8591 13.8559L34.7352 16.7842L34.7518 16.7937L11.851 29.8793L11.851 17.3812Z" fill="#6C47FF"/>
<path d="M77.1324 59.3331L46.5806 41.8718L46.5917 55.5496L54.2483 59.9285L54.2317 59.938L77.1324 73.0235V59.3331Z" fill="#6C47FF"/>
<path d="M41.2696 52.178L34.3023 56.3548L28.0483 59.9288L28.0652 59.938L5.16442 73.0239V59.3329L29.4576 45.4098L41.2696 52.178Z" fill="#6C47FF"/>
<path d="M33.8614 9.10446L34.011 42.6765L45.8509 35.828L45.8192 28.625L45.8357 28.6347L45.7178 2.25922L33.8614 9.10446Z" fill="#6C47FF"/>
</svg>
