<svg width="24" height="24" viewBox="0 0 23 24" fill="none" xmlns="http://www.w3.org/2000/svg">
<path d="M18.151 19.252C18.855 20.257 19.111 21.291 18.724 21.562C18.337 21.833 17.453 21.238 16.749 20.233C16.49 19.863 16.293 19.489 16.165 19.151C15.009 19.923 13.672 20.409 12.267 20.551C12.348 20.891 12.397 21.288 12.397 21.717C12.397 22.944 12.014 23.938 11.541 23.938C11.068 23.938 10.685 22.944 10.685 21.717C10.685 21.297 10.732 20.91 10.81 20.575C9.396 20.476 8.045 20.028 6.866 19.291C6.739 19.592 6.566 19.912 6.342 20.233C5.638 21.238 4.754 21.833 4.367 21.562C3.98 21.291 4.236 20.257 4.94 19.252C5.176 18.915 5.432 18.63 5.683 18.402C5.196 17.965 4.755 17.471 4.374 16.923L5.498 16.141C6.843 18.075 9.052 19.229 11.406 19.229C13.766 19.229 15.977 18.071 17.322 16.131L18.447 16.911C18.099 17.413 17.7 17.868 17.264 18.277C17.56 18.518 17.869 18.85 18.151 19.252ZM5.777 5.623C5.182 6.143 4.653 6.746 4.211 7.43L5.361 8.173C6.693 6.111 8.953 4.88 11.407 4.88C13.942 4.88 16.242 6.174 17.558 8.341L18.728 7.63C18.293 6.914 17.765 6.281 17.168 5.735C17.492 5.49 17.839 5.132 18.151 4.686C18.855 3.681 19.111 2.647 18.724 2.376C18.337 2.105 17.453 2.7 16.749 3.705C16.455 4.124 16.245 4.545 16.122 4.917C14.97 4.156 13.637 3.685 12.222 3.553C12.33 3.181 12.397 2.723 12.397 2.22C12.397 0.994 12.014 0 11.541 0C11.068 0 10.685 0.994 10.685 2.221C10.685 2.712 10.748 3.162 10.852 3.529C9.439 3.619 8.095 4.054 6.922 4.776C6.794 4.44 6.599 4.071 6.342 3.705C5.639 2.7 4.755 2.106 4.368 2.377C3.981 2.648 4.237 3.682 4.941 4.687C5.206 5.065 5.497 5.385 5.777 5.623ZM0 15.272H1.648V12.8H3.507V15.273H5.155V9.043H3.508V11.362H1.648V9.043H0V15.272ZM6.536 9.043V15.272H10.657V13.892H8.184V12.78H10.216V11.4H8.184V10.422H10.561V9.042L6.536 9.043ZM11.864 9.043V15.272H15.87V13.892H13.512V9.043H11.864ZM16.943 9.043V15.272H18.457V13.432C18.457 13.272 18.449 13.097 18.433 12.905C18.417 12.713 18.399 12.517 18.38 12.316C18.361 12.115 18.338 11.918 18.313 11.727C18.287 11.535 18.265 11.363 18.246 11.21H18.284L18.782 12.667L19.645 14.766H20.258L21.12 12.667L21.637 11.21H21.675C21.656 11.363 21.633 11.536 21.608 11.728C21.582 11.92 21.56 12.116 21.541 12.317C21.522 12.518 21.504 12.715 21.488 12.906C21.472 13.098 21.464 13.273 21.464 13.433V15.273H23V9.043H21.294L20.355 11.631L20.01 12.647H19.972L19.627 11.631L18.649 9.043H16.943Z" fill="white"/>
</svg>
