<svg width="416" height="86" viewBox="0 0 416 86" fill="none" xmlns="http://www.w3.org/2000/svg">
<path d="M34.1201 14.3912C34.1201 15.109 33.7356 15.7716 33.1124 16.1277L14.5077 26.7592C13.8846 27.1153 13.5 27.778 13.5 28.4957V57.9429C13.5 58.6607 13.8846 59.3234 14.5078 59.6795L33.1123 70.3091C33.7355 70.6651 34.1201 71.3279 34.1201 72.0456V85.8585L2.51557 67.8002C1.2692 67.0881 0.5 65.7627 0.5 64.3272V22.1124C0.5 20.677 1.26913 19.3516 2.51541 18.6394L34.1201 0.579224V14.3912Z" fill="#642DFF"/>
<path d="M80.4846 18.6394C81.7309 19.3516 82.5 20.677 82.5 22.1124V64.3272C82.5 65.7627 81.7308 67.0881 80.4844 67.8002L48.8799 85.8585V72.0456C48.8799 71.3279 49.2645 70.6651 49.8877 70.3091L68.4922 59.6795C69.1154 59.3234 69.5 58.6607 69.5 57.9429V28.4957C69.5 27.778 69.1154 27.1153 68.4923 26.7592L49.8876 16.1277C49.2644 15.7716 48.8799 15.109 48.8799 14.3912V0.579224L80.4846 18.6394Z" fill="#642DFF"/>
<path d="M35.2388 46.744L35.2388 39.6942L41.5005 36.1171L47.7612 39.6942L47.7612 46.744L41.5005 50.3212L35.2388 46.744Z" fill="#642DFF" stroke="#642DFF" stroke-width="12"/>
<path d="M166.9 43.2189C166.9 32.0189 161.3 24.0189 150.9 24.0189C140.5 24.0189 134.9 32.0189 134.9 43.2189C134.9 54.4189 140.5 62.4189 150.9 62.4189C161.3 62.4189 166.9 54.4189 166.9 43.2189ZM178.1 43.2189C178.1 60.0189 167.7 72.0189 150.9 72.0189C134.1 72.0189 123.7 60.0189 123.7 43.2189C123.7 26.4189 134.1 14.4189 150.9 14.4189C167.7 14.4189 178.1 26.4189 178.1 43.2189ZM223.681 51.2189C223.681 64.0189 215.681 72.0189 206.081 72.0189C202.401 72.0189 198.161 70.8989 195.681 68.0189H194.881L194.081 70.4189L193.281 71.2189H184.481L183.681 70.4189V16.0189L184.481 15.2189H194.081L194.881 16.0189V34.4189H195.681C198.161 31.6189 202.321 30.4189 206.081 30.4189C215.681 30.4189 223.681 38.4189 223.681 51.2189ZM212.481 51.2189C212.481 44.8189 210.081 40.0189 203.681 40.0189C197.281 40.0189 194.881 44.8189 194.881 51.2189C194.881 57.6189 197.281 62.4189 203.681 62.4189C210.081 62.4189 212.481 57.6189 212.481 51.2189ZM261.269 59.2189C261.269 65.6189 256.469 72.0189 243.669 72.0189C232.469 72.0189 226.069 66.4189 226.069 58.4189L226.869 57.6189H236.469L237.269 58.4189C237.269 61.6189 239.669 62.4189 243.669 62.4189C247.669 62.4189 250.069 61.6189 250.069 59.2189C250.069 56.0189 246.869 56.0189 242.069 55.2189C237.269 54.4189 226.869 52.0189 226.869 42.4189C226.869 36.0189 231.669 30.4189 243.669 30.4189C253.269 30.4189 260.469 34.4189 260.469 42.4189L259.669 43.2189H250.069L249.269 42.4189C249.269 40.8189 247.669 40.0189 243.669 40.0189C239.669 40.0189 238.069 40.8189 238.069 43.2189C238.069 46.4189 242.869 46.4189 247.669 47.2189C252.469 48.0189 261.269 49.6189 261.269 59.2189ZM302.069 51.2189V54.4189L301.269 55.2189H276.469L275.669 56.0189C275.669 57.6189 277.269 62.4189 283.669 62.4189C286.069 62.4189 288.469 61.6189 289.269 60.0189L290.069 59.2189H299.669L300.469 60.0189C299.669 64.8189 295.669 72.0189 283.669 72.0189C270.069 72.0189 263.669 62.4189 263.669 51.2189C263.669 40.0189 270.069 30.4189 282.869 30.4189C295.669 30.4189 302.069 40.0189 302.069 51.2189ZM289.269 47.2189L290.069 46.4189C290.069 45.6189 289.269 40.0189 282.869 40.0189C276.469 40.0189 275.669 45.6189 275.669 46.4189L276.469 47.2189H289.269ZM333.272 40.0189L332.472 40.8189H326.872C320.472 40.8189 318.072 44.0189 318.072 51.2189V70.4189L317.272 71.2189H307.672L306.872 70.4189V32.0189L307.672 31.2189H316.472L317.272 32.0189L318.072 34.4189H318.872C320.552 32.0989 323.912 31.2189 327.672 31.2189H332.472L333.272 32.0189V40.0189ZM372.484 40.0189L358.884 70.4189L358.084 71.2189H349.284L348.484 70.4189L334.884 40.0189V32.0189L335.684 31.2189H342.884L343.684 32.0189L353.284 56.8189H354.084L363.684 32.0189L364.484 31.2189H371.684L372.484 32.0189V40.0189ZM412.525 51.2189V54.4189L411.725 55.2189H386.925L386.125 56.0189C386.125 57.6189 387.725 62.4189 394.125 62.4189C396.525 62.4189 398.925 61.6189 399.725 60.0189L400.525 59.2189H410.125L410.925 60.0189C410.125 64.8189 406.125 72.0189 394.125 72.0189C380.525 72.0189 374.125 62.4189 374.125 51.2189C374.125 40.0189 380.525 30.4189 393.325 30.4189C406.125 30.4189 412.525 40.0189 412.525 51.2189ZM399.725 47.2189L400.525 46.4189C400.525 45.6189 399.725 40.0189 393.325 40.0189C386.925 40.0189 386.125 45.6189 386.125 46.4189L386.925 47.2189H399.725Z" fill="white"/>
</svg>
