<svg width="82" height="95" viewBox="0 0 82 95" fill="none" xmlns="http://www.w3.org/2000/svg">
<path d="M13 63.5568V63.5997L22.2217 68.8683L25.708 70.8771L25.7148 70.8644L41 79.5988L54.2197 72.045V87.0177L41 94.5724L0 71.1447V56.0685L13 63.5568ZM82 24.2872V71.1447L68.9795 78.5841V63.6105L69 63.5997V31.8312L55.7812 24.2775L68.8457 16.7706L82 24.2872ZM53.9932 8.28235L15.1729 30.589L13 31.8312V31.838L12.9746 31.8527L13 31.8966V46.5236L0 39.0353V24.2872L41 0.858521L53.9932 8.28235Z" fill="#6C47FF"/>
<path d="M35.8668 52.6672L35.8668 45.6174L42.1285 42.0403L48.3893 45.6174L48.3893 52.6672L42.1285 56.2444L35.8668 52.6672Z" fill="#6C47FF" stroke="#6C47FF" stroke-width="12"/>
</svg>
