<svg width="446" height="95" viewBox="0 0 446 95" fill="none" xmlns="http://www.w3.org/2000/svg">
<path d="M13.5 63.5568V63.5997L22.7217 68.8683L26.208 70.8771L26.2148 70.8644L41.5 79.5988L54.7197 72.045V87.0177L41.5 94.5724L0.5 71.1447V56.0685L13.5 63.5568ZM82.5 24.2872V71.1447L69.4795 78.5841V63.6105L69.5 63.5997V31.8312L56.2812 24.2775L69.3457 16.7706L82.5 24.2872ZM54.4932 8.28235L15.6729 30.589L13.5 31.8312V31.838L13.4746 31.8527L13.5 31.8966V46.5236L0.5 39.0353V24.2872L41.5 0.858521L54.4932 8.28235Z" fill="#642DFF"/>
<path d="M36.3668 52.6672L36.3668 45.6174L42.6285 42.0403L48.8893 45.6174L48.8893 52.6672L42.6285 56.2444L36.3668 52.6672Z" fill="#642DFF" stroke="#642DFF" stroke-width="12"/>
<path d="M166.9 47.7155C166.9 36.5155 161.3 28.5155 150.9 28.5155C140.5 28.5155 134.9 36.5155 134.9 47.7155C134.9 58.9155 140.5 66.9155 150.9 66.9155C161.3 66.9155 166.9 58.9155 166.9 47.7155ZM178.1 47.7155C178.1 64.5155 167.7 76.5155 150.9 76.5155C134.1 76.5155 123.7 64.5155 123.7 47.7155C123.7 30.9155 134.1 18.9155 150.9 18.9155C167.7 18.9155 178.1 30.9155 178.1 47.7155ZM223.681 55.7155C223.681 68.5155 215.681 76.5155 206.081 76.5155C202.161 76.5155 198.001 75.1555 195.681 72.5155H194.881V90.9155L194.081 91.7155H184.481L183.681 90.9155V36.5155L184.481 35.7155H193.281L194.081 36.5155L194.881 38.9155H195.681C198.321 36.2755 201.921 34.9155 206.081 34.9155C215.681 34.9155 223.681 42.9155 223.681 55.7155ZM212.481 55.7155C212.481 49.3155 210.081 44.5155 203.681 44.5155C197.281 44.5155 194.881 49.3155 194.881 55.7155C194.881 62.1155 197.281 66.9155 203.681 66.9155C210.081 66.9155 212.481 62.1155 212.481 55.7155ZM242.887 46.1155V63.7155C242.887 65.3155 243.687 66.1155 245.287 66.1155H252.487L253.287 66.9155V74.9155L252.487 75.7155H245.287C238.087 75.7155 231.687 72.5155 231.687 63.7155V46.1155L230.887 45.3155H225.287L224.487 44.5155V36.5155L225.287 35.7155H230.887L231.687 34.9155V27.7155L232.487 26.9155H242.087L242.887 27.7155V34.9155L243.687 35.7155H252.487L253.287 36.5155V44.5155L252.487 45.3155H243.687L242.887 46.1155ZM270.081 28.5155L269.281 29.3155H259.681L258.881 28.5155V20.5154L259.681 19.7155H269.281L270.081 20.5154V28.5155ZM270.081 74.9155L269.281 75.7155H259.681L258.881 74.9155V36.5155L259.681 35.7155H269.281L270.081 36.5155V74.9155ZM338.062 74.9155L337.262 75.7155H327.662L326.862 74.9155V51.7155C326.862 47.7155 325.262 44.5155 320.462 44.5155C315.662 44.5155 313.262 47.7155 313.262 53.3155V74.9155L312.462 75.7155H302.862L302.062 74.9155V51.7155C302.062 47.7155 300.462 44.5155 295.662 44.5155C290.862 44.5155 288.462 47.7155 288.462 53.3155V74.9155L287.662 75.7155H278.062L277.262 74.9155V36.5155L278.062 35.7155H286.862L287.662 36.5155L288.462 38.9155H289.262C290.702 37.2355 292.942 34.9155 298.862 34.9155C305.262 34.9155 308.462 38.1155 310.062 40.5155H310.862C313.262 36.6755 318.382 34.9155 322.862 34.9155C332.462 34.9155 338.062 40.5155 338.062 50.9155V74.9155ZM355.672 28.5155L354.872 29.3155H345.272L344.472 28.5155V20.5154L345.272 19.7155H354.872L355.672 20.5154V28.5155ZM355.672 74.9155L354.872 75.7155H345.272L344.472 74.9155V36.5155L345.272 35.7155H354.872L355.672 36.5155V74.9155ZM396.453 74.9155L395.653 75.7155H362.053L361.253 74.9155V66.1155L362.053 64.5155L380.453 46.1155V45.3155H362.853L362.053 44.5155V36.5155L362.853 35.7155H394.853L395.653 36.5155V45.3155L394.853 46.9155L376.453 65.3155V66.1155H395.653L396.453 66.9155V74.9155ZM436.453 55.7155V58.9155L435.653 59.7155H410.853L410.053 60.5155C410.053 62.1155 411.653 66.9155 418.053 66.9155C420.453 66.9155 422.853 66.1155 423.653 64.5155L424.453 63.7155H434.053L434.853 64.5155C434.053 69.3155 430.053 76.5155 418.053 76.5155C404.453 76.5155 398.053 66.9155 398.053 55.7155C398.053 44.5155 404.453 34.9155 417.253 34.9155C430.053 34.9155 436.453 44.5155 436.453 55.7155ZM423.653 51.7155L424.453 50.9155C424.453 50.1155 423.653 44.5155 417.253 44.5155C410.853 44.5155 410.053 50.1155 410.053 50.9155L410.853 51.7155H423.653Z" fill="white"/>
</svg>
