<svg width="80" height="89" viewBox="0 0 80 89" fill="none" xmlns="http://www.w3.org/2000/svg">
<path d="M80 63.9917C80 65.5867 79.1454 67.0593 77.7606 67.8506L42.2051 88.1679C40.8387 88.9487 39.1613 88.9487 37.7949 88.1679L2.23956 67.8507C0.854688 67.0594 6.36615e-05 65.5866 0.000166814 63.9915L0.00108507 49.7927L31.4106 67.7409L31.3889 67.7539L38.914 72.0323C39.5966 72.4204 40.4333 72.4195 41.115 72.0299L48.597 67.7539L48.5742 67.7409L80 49.7841V63.9917Z" fill="#D8CBFF"/>
<path d="M80 23.857V36.3948C80 37.9897 79.1454 39.4623 77.7607 40.2536L42.1976 60.5762C40.8311 61.3571 39.1537 61.3571 37.7873 60.5762L2.24036 40.2623C0.855642 39.471 0.00108507 37.9984 0.00108507 36.4035V23.857L0.00868056 23.8516L20.0076 35.2795L20 35.2849L31.403 41.8008L31.3921 41.8084L38.8729 46.0842C39.5547 46.4739 40.3916 46.4748 41.0742 46.0866L48.597 41.8084L48.5905 41.804L60 35.2849L59.9848 35.2763L79.9848 23.8483L80 23.857Z" fill="#D8CBFF"/>
<path d="M71.4019 17.9438L57.4414 25.9223L49.1916 21.2077L49.1981 21.2044L41.0957 16.5806C40.4127 16.1908 39.5745 16.1911 38.8917 16.5813L30.8019 21.2044L30.8084 21.2077L22.5521 25.9256L8.59158 17.946L37.795 1.25988C39.1613 0.47919 40.8386 0.47922 42.205 1.25996L71.4019 17.9438Z" fill="#D8CBFF"/>
</svg>
