<svg width="446" height="90" viewBox="0 0 446 90" fill="none" xmlns="http://www.w3.org/2000/svg">
<path d="M80.5 64.2525C80.5 65.8474 79.6454 67.32 78.2606 68.1114L42.7051 88.4287C41.3387 89.2094 39.6613 89.2094 38.2949 88.4287L2.73956 68.1114C1.35469 67.3201 0.500064 65.8473 0.500167 64.2523L0.501085 50.0535L31.9106 68.0016L31.8889 68.0146L39.414 72.2931C40.0966 72.6812 40.9333 72.6802 41.615 72.2906L49.097 68.0146L49.0742 68.0016L80.5 50.0448V64.2525Z" fill="#642DFF"/>
<path d="M80.5 24.1177V36.6555C80.5 38.2504 79.6454 39.723 78.2607 40.5144L42.6976 60.837C41.3311 61.6178 39.6537 61.6178 38.2873 60.8369L2.74036 40.523C1.35564 39.7317 0.501085 38.2591 0.501085 36.6643V24.1177L0.508681 24.1123L20.5076 35.5403L20.5 35.5457L31.903 42.0615L31.8921 42.0691L39.3729 46.3449C40.0547 46.7346 40.8916 46.7355 41.5742 46.3473L49.097 42.0691L49.0905 42.0648L60.5 35.5457L60.4848 35.537L80.4848 24.109L80.5 24.1177Z" fill="#642DFF"/>
<path d="M71.9019 18.2045L57.9414 26.1831L49.6916 21.4684L49.6981 21.4652L41.5957 16.8413C40.9127 16.4516 40.0745 16.4518 39.3917 16.842L31.3019 21.4652L31.3084 21.4684L23.0521 26.1863L9.09158 18.2067L38.295 1.52062C39.6613 0.739932 41.3386 0.739963 42.705 1.5207L71.9019 18.2045Z" fill="#642DFF"/>
<path d="M172.3 33.7747C172.3 44.9747 164.3 50.5747 153.1 50.5747H137.9L137.1 51.3747V72.1747L136.3 72.9747H126.7L125.9 72.1747V17.7747L126.7 16.9747H153.1C164.3 16.9747 172.3 22.5747 172.3 33.7747ZM161.1 33.7747C161.1 28.1747 157.9 26.5747 153.1 26.5747H137.9L137.1 27.3747V40.1747L137.9 40.9747H153.1C157.9 40.9747 161.1 39.3747 161.1 33.7747ZM202.675 41.7747L201.875 42.5747H196.275C189.875 42.5747 187.475 45.7747 187.475 52.9747V72.1747L186.675 72.9747H177.075L176.275 72.1747V33.7747L177.075 32.9747H185.875L186.675 33.7747L187.475 36.1747H188.275C189.955 33.8547 193.315 32.9747 197.075 32.9747H201.875L202.675 33.7747V41.7747ZM241.866 52.9747C241.866 65.7747 233.866 73.7747 221.866 73.7747C209.866 73.7747 201.866 65.7747 201.866 52.9747C201.866 40.1747 209.866 32.1747 221.866 32.1747C233.866 32.1747 241.866 40.1747 241.866 52.9747ZM230.666 52.9747C230.666 45.7747 227.466 41.7747 221.866 41.7747C216.266 41.7747 213.066 45.7747 213.066 52.9747C213.066 60.1747 216.266 64.1747 221.866 64.1747C227.466 64.1747 230.666 60.1747 230.666 52.9747ZM281.05 41.7747L267.45 72.1747L266.65 72.9747H257.85L257.05 72.1747L243.45 41.7747V33.7747L244.25 32.9747H251.45L252.25 33.7747L261.85 58.5747H262.65L272.25 33.7747L273.05 32.9747H280.25L281.05 33.7747V41.7747ZM297.072 25.7747L296.272 26.5747H286.672L285.872 25.7747V17.7747L286.672 16.9747H296.272L297.072 17.7747V25.7747ZM297.072 72.1747L296.272 72.9747H286.672L285.872 72.1747V33.7747L286.672 32.9747H296.272L297.072 33.7747V72.1747ZM337.053 60.9747C337.053 67.3747 332.253 73.7747 319.453 73.7747C308.253 73.7747 301.853 68.1747 301.853 60.1747L302.653 59.3747H312.253L313.053 60.1747C313.053 63.3747 315.453 64.1747 319.453 64.1747C323.453 64.1747 325.853 63.3747 325.853 60.9747C325.853 57.7747 322.653 57.7747 317.853 56.9747C313.053 56.1747 302.653 53.7747 302.653 44.1747C302.653 37.7747 307.453 32.1747 319.453 32.1747C329.053 32.1747 336.253 36.1747 336.253 44.1747L335.453 44.9747H325.853L325.053 44.1747C325.053 42.5747 323.453 41.7747 319.453 41.7747C315.453 41.7747 313.853 42.5747 313.853 44.9747C313.853 48.1747 318.653 48.1747 323.453 48.9747C328.253 49.7747 337.053 51.3747 337.053 60.9747ZM353.053 25.7747L352.253 26.5747H342.653L341.853 25.7747V17.7747L342.653 16.9747H352.253L353.053 17.7747V25.7747ZM353.053 72.1747L352.253 72.9747H342.653L341.853 72.1747V33.7747L342.653 32.9747H352.253L353.053 33.7747V72.1747ZM397.834 52.9747C397.834 65.7747 389.834 73.7747 377.834 73.7747C365.834 73.7747 357.834 65.7747 357.834 52.9747C357.834 40.1747 365.834 32.1747 377.834 32.1747C389.834 32.1747 397.834 40.1747 397.834 52.9747ZM386.634 52.9747C386.634 45.7747 383.434 41.7747 377.834 41.7747C372.234 41.7747 369.034 45.7747 369.034 52.9747C369.034 60.1747 372.234 64.1747 377.834 64.1747C383.434 64.1747 386.634 60.1747 386.634 52.9747ZM440.2 72.1747L439.4 72.9747H429.8L429 72.1747V48.9747C429 44.9747 427.4 41.7747 422.6 41.7747C417 41.7747 413.8 44.9747 413.8 52.1747V72.1747L413 72.9747H403.4L402.6 72.1747V33.7747L403.4 32.9747H412.2L413 33.7747L413.8 36.1747H414.6C416.2 34.5747 419.4 32.1747 425 32.1747C434.6 32.1747 440.2 38.5747 440.2 48.1747V72.1747Z" fill="white"/>
</svg>
